HIERARCHY
ROOT Hips
{
	OFFSET 0.000000 0.000000 0.000000
	CHANNELS 6 Xposition Yposition Zposition Zrotation Yrotation Xrotation 
	JOINT LHipJoint
	{
		OFFSET 0.000000 0.000000 0.000000
		CHANNELS 3 Zrotation Yrotation Xrotation
		JOINT LeftUpLeg
		{
			OFFSET 1.363060 -1.794630 0.839290
			CHANNELS 3 Zrotation Yrotation Xrotation
			JOINT LeftLeg
			{
				OFFSET 2.448110 -6.726130 0.000000
				CHANNELS 3 Zrotation Yrotation Xrotation
				JOINT LeftFoot
				{
					OFFSET 2.562200 -7.039590 0.000000
					CHANNELS 3 Zrotation Yrotation Xrotation
					JOINT LeftToeBase
					{
						OFFSET 0.157640 -0.433110 2.322550
						CHANNELS 3 Zrotation Yrotation Xrotation
						End Site
						{
							OFFSET 0.000000 0.000000 0.000000
						}
					}
				}
			}
		}
	}
	JOINT RHipJoint
	{
		OFFSET 0.000000 0.000000 0.000000
		CHANNELS 3 Zrotation Yrotation Xrotation
		JOINT RightUpLeg
		{
			OFFSET -1.305520 -1.794630 0.839290
			CHANNELS 3 Zrotation Yrotation Xrotation
			JOINT RightLeg
			{
				OFFSET -2.542530 -6.985550 0.000000
				CHANNELS 3 Zrotation Yrotation Xrotation
				JOINT RightFoot
				{
					OFFSET -2.568260 -7.056230 0.000000
					CHANNELS 3 Zrotation Yrotation Xrotation
					JOINT RightToeBase
					{
						OFFSET -0.164730 -0.452590 2.363150
						CHANNELS 3 Zrotation Yrotation Xrotation
						End Site
						{
							OFFSET 0.000000 0.000000 0.000000
						}
					}
				}
			}
		}
	}
}
MOTION
Frames: 31
Frame Time: 0.008333
4.337110 17.418466 -0.525443 -10.384889 80.901284 16.743544 -10.449664 0.614158 1.757961 -4.121174 -0.104862 -25.131736 -1.693177 -0.812763 12.130856 1.449921 8.035576 -5.926992 0.381100 0.000000 -42.299400 9.798987 -0.157242 0.337058 9.903387 1.405727 -47.842741 -0.117169 -3.913247 56.467004 -1.210673 -4.871598 -1.716992 -0.790400 -0.000000 -48.517501
4.609478 17.441475 -0.502711 -10.816330 81.115777 16.114991 -10.553544 0.760752 1.604055 -4.111178 0.479079 -23.300111 -1.714633 -0.842010 10.810868 1.326789 7.621317 -5.121135 0.462300 0.000000 -43.140100 9.611639 -0.093817 0.472059 10.247580 1.542274 -49.001738 0.191838 -3.840935 53.948006 -1.002611 -3.676236 -1.872651 -0.658800 -0.000001 -49.755701
4.882340 17.452847 -0.476669 -10.708876 81.384757 16.048667 -10.644352 0.904725 1.447152 -4.151356 1.041965 -21.632126 -1.748639 -0.854194 9.748904 1.200757 7.123116 -4.393762 0.516300 0.000000 -44.143600 9.437905 -0.037996 0.645760 10.411894 1.680025 -50.089438 0.519745 -3.743027 51.149010 -0.794937 -2.526490 -1.855388 -0.546300 0.000000 -50.889100
5.155334 17.452948 -0.446639 -9.970882 81.704997 16.630499 -10.722421 1.042878 1.280814 -4.238617 1.580213 -20.082637 -1.795446 -0.854275 8.897208 1.071603 6.541447 -3.740598 0.543800 -0.000000 -45.351100 9.279837 0.013824 0.857356 10.377694 1.825468 -51.093853 0.860115 -3.612909 48.076013 -0.595308 -1.473120 -1.670050 -0.451000 -0.000000 -51.768500
5.427992 17.442081 -0.412325 -8.535386 82.071202 17.919652 -10.787953 1.172048 1.098247 -4.364718 2.094139 -18.603527 -1.853913 -0.846404 8.205476 0.939241 5.878737 -3.149161 0.547000 -0.000000 -46.786400 9.139929 0.064656 1.105731 10.134402 1.982863 -52.004090 1.205523 -3.443415 44.740295 -0.411689 -0.563214 -1.335206 -0.372500 0.000000 -52.318800
5.699963 17.420660 -0.373740 -6.368095 82.475113 19.944169 -10.839773 1.289347 0.892664 -4.516108 2.587080 -17.150588 -1.921832 -0.833698 7.625358 0.804375 5.141494 -2.603078 0.529200 -0.000000 -48.446800 9.021551 0.118164 1.388935 9.680914 2.153691 -52.810721 1.547569 -3.226566 41.153828 -0.251404 0.166507 -0.878289 -0.312600 0.000000 -52.564600
5.970900 17.389131 -0.331300 -3.475978 82.906531 22.689299 -10.874387 1.393371 0.658381 -4.676167 3.065119 -15.683486 -1.996264 -0.818251 7.114421 0.668492 4.340353 -2.083886 0.494300 -0.000000 -50.300800 8.929731 0.178693 1.704322 9.025143 2.333703 -53.502466 1.876604 -2.953964 37.327689 -0.120320 0.694636 -0.331559 -0.275500 0.000000 -52.601700
6.240553 17.348018 -0.285690 0.088146 83.352631 26.094467 -10.885976 1.485093 0.391808 -4.827237 3.534695 -14.170535 -2.073826 -0.800651 6.638677 0.534296 3.492723 -1.575138 0.445800 -0.000000 -52.292301 8.870872 0.253509 2.046820 8.184783 2.512460 -54.065668 2.181129 -2.617460 33.272846 -0.021967 1.017895 0.273606 -0.265400 -0.000000 -52.576200
6.508865 17.297906 -0.237721 4.238597 83.797272 30.063933 -10.867875 1.568709 0.092720 -4.953814 4.000007 -12.586127 -2.150955 -0.779947 6.173295 0.405484 2.623260 -1.064711 0.387100 0.000000 -54.349600 8.852034 0.353029 2.406700 7.186358 2.669768 -54.481621 2.447969 -2.211597 29.006026 0.043818 1.154824 0.910101 -0.284100 0.000001 -52.641600
6.776140 17.239334 -0.188245 8.869816 84.224825 34.485114 -10.816627 1.651165 -0.232661 -5.043625 4.461489 -10.925742 -2.224540 -0.753618 5.712554 0.285848 1.757364 -0.550619 0.320300 -0.000001 -56.399500 8.877970 0.488741 2.770147 6.069006 2.775501 -54.738292 2.664611 -1.737277 24.559219 0.081923 1.145049 1.558932 -0.328700 -0.000001 -52.931300
7.042280 17.172927 -0.137952 13.926506 84.609336 39.273584 -10.728918 1.740663 -0.581128 -5.100770 4.907684 -9.142351 -2.290804 -0.719139 5.228968 0.180764 0.945138 -0.022636 0.250700 0.000000 -58.376200 8.952700 0.675392 3.103510 4.878472 2.777272 -54.804045 2.821227 -1.209177 20.007840 0.104946 1.066916 2.194632 -0.383600 0.000000 -53.492300
7.308317 17.099189 -0.087463 19.354418 84.942212 44.366868 -10.611766 1.845727 -0.934407 -5.123339 5.327736 -7.259324 -2.348032 -0.673389 4.749620 0.092284 0.208349 0.504951 0.179801 -0.000000 -60.242200 9.071707 0.917040 3.381805 3.688625 2.620800 -54.695139 2.920076 -0.653608 15.463522 0.130596 1.013995 2.797043 -0.426500 0.000000 -54.332100
7.575049 17.018703 -0.037128 25.138840 85.209066 49.731200 -10.473726 1.972347 -1.279126 -5.118324 5.703481 -5.271014 -2.394292 -0.614340 4.285097 0.022516 -0.420461 1.025434 0.111600 -0.000000 -61.988800 9.225300 1.214787 3.569723 2.585027 2.247732 -54.435228 2.975624 -0.108869 11.095216 0.181830 1.110714 3.326394 -0.422900 -0.000001 -55.355800
7.843617 16.932245 0.012759 31.235620 85.404430 55.318518 -10.329098 2.122652 -1.600427 -5.085876 6.020826 -3.203309 -2.428360 -0.540759 3.866714 -0.028514 -0.926141 1.525790 0.048900 0.000000 -63.645600 9.394686 1.559278 3.645974 1.658733 1.626488 -54.083058 3.013564 0.387871 7.092909 0.278345 1.471182 3.736502 -0.340201 -0.000000 -56.429300
8.115379 16.840830 0.062168 37.553949 85.530949 61.052576 -10.195136 2.293524 -1.886421 -5.017011 6.270414 -1.108197 -2.449143 -0.452438 3.538112 -0.062340 -1.309657 1.992101 -0.006200 -0.000000 -65.277800 9.555035 1.931889 3.611217 0.974162 0.774072 -53.715630 3.059420 0.811975 3.622341 0.427045 2.153415 3.988329 -0.164100 0.000000 -57.416300
8.391649 16.745657 0.111269 43.973324 85.598104 66.846901 -10.088056 2.477636 -2.129021 -4.899301 6.443484 0.942964 -2.455410 -0.350281 3.345990 -0.081149 -1.580562 2.414703 -0.052600 0.000001 -66.977401 9.682527 2.307400 3.490565 0.537194 -0.234070 -53.405623 3.125501 1.154833 0.788247 0.616053 3.118591 4.068913 0.087500 0.000000 -58.217100
8.673778 16.648107 0.160546 50.384418 85.617794 72.643560 -10.020115 2.665590 -2.322529 -4.722507 6.528378 2.861906 -2.446071 -0.235685 3.339082 -0.087408 -1.754504 2.790888 -0.089900 -0.000000 -68.849500 9.762245 2.657379 3.331122 0.276182 -1.265911 -53.196743 3.203251 1.421442 -1.395792 0.814536 4.207568 4.011712 0.363400 0.000000 -58.801600
8.962391 16.549240 0.210439 56.651199 85.593157 78.338877 -9.991857 2.849978 -2.463542 -4.499951 6.486385 4.623311 -2.418206 -0.111410 3.508256 -0.080743 -1.811540 3.150995 -0.113600 0.000000 -70.993000 9.790224 2.960252 3.163052 0.121245 -2.225716 -53.128624 3.284599 1.606728 -2.865424 0.999871 5.293787 3.819826 0.623600 0.000000 -59.152401
9.258647 16.450211 0.261724 62.699369 85.535594 83.919128 -10.007550 3.023140 -2.547847 -4.235080 6.308858 6.133027 -2.371485 0.021608 3.897208 -0.063860 -1.778165 3.514399 -0.126000 0.000000 -73.485600 9.773429 3.191041 3.046077 -0.083689 -2.948282 -53.178965 3.337385 1.724510 -3.739408 1.130854 6.095534 3.607340 0.802099 -0.000000 -59.395600
9.562682 16.351691 0.314499 68.388487 85.452588 89.258342 -10.061503 3.181636 -2.574881 -3.944677 5.975273 7.393337 -2.303056 0.161558 4.479003 -0.036778 -1.648733 3.939512 -0.125599 0.000000 -76.362200 9.720806 3.337541 2.993935 -0.386725 -3.384622 -53.368190 3.355727 1.764725 -3.967138 1.198412 6.527208 3.394091 0.887100 -0.000000 -59.580700
9.874851 16.254424 0.369004 73.651766 85.363348 94.316316 -10.153426 3.322855 -2.544716 -3.623010 5.502355 8.358715 -2.211350 0.308192 5.271965 -0.002015 -1.459070 4.471506 -0.117400 0.000000 -79.597700 9.643145 3.387656 3.032547 -0.852290 -3.460480 -53.691932 3.323131 1.729681 -3.606586 1.185825 6.453430 3.275505 0.860400 0.000000 -59.834600
10.194814 16.158910 0.425122 78.412494 85.289078 99.017286 -10.279223 3.446969 -2.460706 -3.263212 4.913604 9.026256 -2.093556 0.460783 6.270027 0.039600 -1.231347 5.164299 -0.104900 -0.000000 -83.077600 9.547469 3.338923 3.162322 -1.465332 -3.169773 -54.183037 3.236643 1.612738 -2.636178 1.092748 5.871775 3.308621 0.727500 0.000000 -60.210900
10.522160 16.065576 0.480786 82.723369 85.293111 103.382726 -10.456350 3.553425 -2.336823 -2.767700 4.329656 9.396503 -1.944701 0.619958 7.484207 0.080990 -1.078963 6.073714 -0.110500 -0.000000 -86.718600 9.419406 3.185813 3.360428 -2.084485 -2.553261 -54.885452 3.113411 1.405115 -0.983641 0.932359 4.886911 3.522915 0.505500 0.000000 -60.676600
10.855850 15.974749 0.536418 86.768827 85.380425 107.585067 -10.673096 3.645656 -2.173550 -2.150045 3.760885 9.474152 -1.762053 0.782473 8.918272 0.126949 -0.984154 7.223183 -0.135100 0.000000 -90.232900 9.265385 2.944503 3.610374 -2.644803 -1.678244 -55.859131 2.952467 1.101121 1.375490 0.718795 3.615698 3.969936 0.207900 -0.000001 -61.164600
11.194441 15.886595 0.590725 90.850245 85.577949 111.875249 -10.929520 3.723314 -1.981912 -1.373339 3.272035 9.305440 -1.541385 0.944426 10.560228 0.180587 -0.966466 8.634472 -0.189400 0.000000 -93.394100 9.077409 2.633393 3.868711 -2.995849 -0.658621 -57.131366 2.768188 0.692744 4.500397 0.482280 2.261584 4.643486 -0.133400 -0.000000 -61.464799
11.536123 15.801296 0.642812 95.554916 85.892848 116.790463 -11.216324 3.781646 -1.772140 -0.427035 2.896644 8.940616 -1.280365 1.099810 12.405774 0.248715 -1.004338 10.291519 -0.275300 -0.000000 -95.929200 8.855557 2.277268 4.094548 -3.035258 0.396239 -58.671438 2.565483 0.182028 8.372998 0.250814 0.991880 5.512054 -0.483500 0.000000 -61.270299
11.878702 15.719240 0.692207 101.880302 86.317098 123.284485 -11.506521 3.809928 -1.557175 0.670953 2.634909 8.438423 -0.980002 1.241208 14.449479 0.340248 -1.026960 12.141564 -0.377900 -0.000000 -97.569000 8.615043 1.904128 4.258338 -2.730534 1.409552 -60.378606 2.339674 -0.412120 12.867162 0.041467 -0.098390 6.507144 -0.810200 -0.000000 -60.272099
12.219425 15.641244 0.739507 111.423302 86.825037 132.925245 -11.734475 3.798953 -1.352243 1.851971 2.440147 7.864535 -0.649967 1.363007 16.681371 0.464701 -0.897693 14.095419 -0.449100 0.000000 -98.054300 8.406542 1.555173 4.346919 -2.125100 2.332237 -62.113299 2.084144 -1.055198 17.765184 -0.140066 -0.970520 7.517693 -1.083600 -0.000000 -58.336600
12.555811 15.568744 0.784434 128.415601 87.492503 149.945973 -11.769640 3.765567 -1.176501 3.126158 2.314046 7.224497 -0.320616 1.473897 19.135885 0.627582 -0.519393 16.010633 -0.437401 0.000000 -97.167400 8.350590 1.314131 4.366039 -1.222221 3.208083 -63.721445 1.812176 -1.701612 22.768694 -0.301977 -1.659510 8.415140 -1.293999 0.000000 -55.613500
12.885413 15.503474 0.827119 160.295973 88.867885 -178.145609 -11.594996 3.994790 -0.994161 4.348434 2.394505 6.473657 -0.155008 1.675295 21.776471 0.862941 0.262871 17.722029 -0.276900 0.000000 -94.753600 8.591855 1.581561 4.225764 0.038450 4.314668 -65.059382 1.542352 -2.252758 27.641361 -0.417023 -2.152630 9.114634 -1.436600 -0.000001 -52.527100
13.206175 15.447260 0.867577 19.707294 89.535172 41.245315 -12.535969 4.363094 -0.759425 4.929516 2.746714 5.513627 -0.069835 1.915957 24.652858 1.148254 1.484908 19.129507 0.087300 -0.000000 -90.774500 8.013896 1.841709 3.869458 1.081838 5.295742 -66.116894 1.215510 -2.555234 32.329647 -0.429011 -2.380270 9.501176 -1.514200 -0.000000 -49.585300
